<svg id="Layer_1" data-name="Layer 1" xmlns="http://www.w3.org/2000/svg" viewBox="0 0 24 24"><defs><style>.cls-1{fill:#fff;}</style></defs><title>icon-instagram</title><path class="cls-1" d="M18.85,3.9A1.25,1.25,0,1,1,17.6,5.15,1.25,1.25,0,0,1,18.85,3.9ZM12,7.75A4.25,4.25,0,1,0,16.24,12,4.25,4.25,0,0,0,12,7.75Zm0-1.5A5.75,5.75,0,1,1,6.24,12,5.74,5.74,0,0,1,12,6.25ZM17.24,1.5H6.74A5.25,5.25,0,0,0,1.5,6.75v10.5A5.25,5.25,0,0,0,6.74,22.5h10.5a5.25,5.25,0,0,0,5.25-5.25V6.75A5.25,5.25,0,0,0,17.24,1.5Zm0-1.5A6.75,6.75,0,0,1,24,6.75v10.5A6.75,6.75,0,0,1,17.24,24H6.74A6.75,6.75,0,0,1,0,17.25V6.75A6.75,6.75,0,0,1,6.74,0Z"/></svg>