<svg id="Layer_1" data-name="Layer 1" xmlns="http://www.w3.org/2000/svg" viewBox="0 0 24 24"><defs><style>.cls-1{fill:#fff;}</style></defs><title>icon-facebook</title><path class="cls-1" d="M17,11H13.87a.76.76,0,0,0-.75.75V22.5H9.62V11.75A.76.76,0,0,0,8.87,11H6.62V8.5H8.87a.75.75,0,0,0,.75-.75V5.61c0-2.46,1.14-4.11,3.92-4.11h3.58V4H14.87a1.71,1.71,0,0,0-1.3.57,1.76,1.76,0,0,0-.45,1.35V7.75a.75.75,0,0,0,.75.75H17.3ZM14.62,7V5.84c0-.14,0-.21.06-.26a.21.21,0,0,1,.19-.08h3a.76.76,0,0,0,.75-.75v-4A.75.75,0,0,0,17.87,0H13.54C9.79,0,8.12,2.42,8.12,5.61V7H5.87a.76.76,0,0,0-.75.75v4a.75.75,0,0,0,.75.75H8.12V23.25a.75.75,0,0,0,.75.75h5a.75.75,0,0,0,.75-.75V12.5h3.1a.76.76,0,0,0,.75-.67l.41-4A.76.76,0,0,0,18.13,7Z"/></svg>