<svg id="Layer_1" data-name="Layer 1" xmlns="http://www.w3.org/2000/svg" viewBox="0 0 24 24"><defs><style>.cls-1{fill:#fff;}</style></defs><title>icon-twitter</title><path class="cls-1" d="M20.64,7.62a.77.77,0,0,0-.31.61v.83a11.26,11.26,0,0,1-5,9.25c-3,2-6.84,2.45-11.29,1.14a12.16,12.16,0,0,0,4-1.77.75.75,0,0,0-.36-1.37c-2.3-.18-3.44-.49-4.18-1.36l1.88-.69a.75.75,0,0,0-.22-1.45,3.79,3.79,0,0,1-3.28-2.34L4,10.8a.75.75,0,0,0,.61-1.3A4.59,4.59,0,0,1,3.18,5.77C6.12,8.7,9.07,10,12.27,9.29a.74.74,0,0,0,.6-.73v-1a3.71,3.71,0,0,1,6.24-2.75.74.74,0,0,0,.75.16l.92-.3-.38.83a.75.75,0,0,0,.38,1l.89.38Zm2.22-3.9a.75.75,0,0,0-.92-1l-2.16.72a5.12,5.12,0,0,0-3.15-1.11,5.26,5.26,0,0,0-5.26,5.25v.36C8.61,8.24,6,6.77,3.19,3.57a.75.75,0,0,0-1.31.35A7.78,7.78,0,0,0,2.38,9L.94,8.82a.74.74,0,0,0-.85.83,5.28,5.28,0,0,0,2.63,4l-.65.24a.75.75,0,0,0-.41,1A4.57,4.57,0,0,0,5.2,17.5a10.92,10.92,0,0,1-4.35.81.75.75,0,0,0-.32,1.44c6.12,2.72,11.56,2.5,15.62-.19a12.75,12.75,0,0,0,5.68-10.5V8.61l1.79-1.29A.76.76,0,0,0,23.48,6l-1.4-.6Z"/></svg>