<?xml version="1.0" encoding="utf-8"?>
<!-- Generator: Adobe Illustrator 19.0.0, SVG Export Plug-In . SVG Version: 6.00 Build 0)  -->
<svg version="1.1" id="Capa_1" xmlns="http://www.w3.org/2000/svg" xmlns:xlink="http://www.w3.org/1999/xlink" x="0px" y="0px"
	 viewBox="-245 157 300 300" style="enable-background:new -245 157 300 300;" xml:space="preserve">
<style type="text/css">
	.st0{fill:url(#XMLID_2_);}
</style>
<linearGradient id="XMLID_2_" gradientUnits="userSpaceOnUse" x1="-95" y1="186.6" x2="-95" y2="431.2" gradientTransform="matrix(1 0 0 -1 0 616)">
	<stop  offset="0" style="stop-color:#A84B30"/>
	<stop  offset="1" style="stop-color:#B06315"/>
</linearGradient>
<path id="XMLID_41_" class="st0" d="M-37.7,184.8h-114.6c-36,0-65.4,29.4-65.4,65.4v113.7c0,36,29.4,65.4,65.4,65.4h67.6
	c0-28.7,0-56.9,0-85.6c-9.9,0-19.4,0-29.1,0c0-11.8,0-23,0-34.8c9.9,0,19.5,0,29.4,0c0-9.7-0.1-18.8,0-27.9
	c0.3-19.7,10.1-34.8,26.8-40.5c14.5-5,29.4-2.5,44-1.5c0,10.7,0,20.6,0,31.5c-8,0-15.7-0.5-23.3,0.1c-7,0.6-10.9,4.4-11.3,11.3
	c-0.6,8.8-0.1,17.7-0.1,27.2c11.4,0,22.5,0,34.2,0c-1.5,11.9-3,23.2-4.5,34.9c-10.1,0-19.7,0-29.6,0c0,28.5,0,56.6,0,85.4h10.5
	c36,0,65.4-29.4,65.4-65.4V250.2C27.7,214.2-1.7,184.8-37.7,184.8z"/>
</svg>
