<?xml version="1.0" encoding="utf-8"?>
<!-- Generator: Adobe Illustrator 19.0.0, SVG Export Plug-In . SVG Version: 6.00 Build 0)  -->
<svg version="1.1" id="Capa_1" xmlns="http://www.w3.org/2000/svg" xmlns:xlink="http://www.w3.org/1999/xlink" x="0px" y="0px"
	 viewBox="-245 157 300 300" style="enable-background:new -245 157 300 300;" xml:space="preserve">
<style type="text/css">
	.st0{fill:url(#XMLID_2_);}
	.st1{fill:url(#XMLID_3_);}
	.st2{fill:url(#XMLID_4_);}
	.st3{fill:url(#XMLID_5_);}
</style>
<g id="XMLID_40_">
	<g id="XMLID_197_">
		
			<linearGradient id="XMLID_2_" gradientUnits="userSpaceOnUse" x1="-95.2" y1="186.3" x2="-95.2" y2="431.675" gradientTransform="matrix(1 0 0 -1 0 616)">
			<stop  offset="0" style="stop-color:#A84B30"/>
			<stop  offset="1" style="stop-color:#B06315"/>
		</linearGradient>
		<path id="XMLID_263_" class="st0" d="M-217.6,307.1c0-18.8,0-37.6,0-56.3c0-37.5,27.3-65.6,64.8-66.1c38.5-0.5,77-0.5,115.4,0
			c37.6,0.5,64.8,28.6,64.8,66.1c0,37.7,0,75.5,0,113.2c0,31.3-19.8,56.6-50.2,63.9c-5.6,1.3-11.6,1.7-17.4,1.7
			c-36.7,0.1-73.3,0.1-110,0.1c-40.1-0.1-67.6-27.7-67.6-67.8C-217.6,343.6-217.6,325.3-217.6,307.1z M-174.5,307
			c0,11.7-0.1,23.3,0,35c0.1,24.4,15.9,42.9,40.2,44c26.4,1.2,52.9,1.1,79.3,0c22.7-1,39.1-19,39.5-41.8c0.4-24.6,0.4-49.2,0-73.8
			c-0.3-22.8-16.8-41-39.3-42c-25.8-1.1-51.8-1.4-77.6-0.3c-26.3,1.1-42,19.2-42.1,45.6C-174.5,284.7-174.5,295.8-174.5,307z"/>
		
			<linearGradient id="XMLID_3_" gradientUnits="userSpaceOnUse" x1="-29.8778" y1="273.9" x2="-29.8778" y2="336.4" gradientTransform="matrix(1 0 0 -1 0 616)">
			<stop  offset="0" style="stop-color:#A84B30"/>
			<stop  offset="1" style="stop-color:#B06315"/>
		</linearGradient>
		<path id="XMLID_217_" class="st1" d="M-29.9,307.1c0,11.7,0,23.3,0,35C-29.9,330.5-29.9,318.8-29.9,307.1c0-9.2,0.1-18.3,0-27.5
			C-29.8,288.8-29.9,298-29.9,307.1z"/>
		<g id="XMLID_207_">
			
				<linearGradient id="XMLID_4_" gradientUnits="userSpaceOnUse" x1="-95.0528" y1="243.7223" x2="-95.0528" y2="374.025" gradientTransform="matrix(1 0 0 -1 0 616)">
				<stop  offset="0" style="stop-color:#A84B30"/>
				<stop  offset="1" style="stop-color:#B06315"/>
			</linearGradient>
			<path id="XMLID_210_" class="st2" d="M-29.9,270.5c-0.2-15-11.1-27.6-26-28c-26-0.7-52.1-0.7-78.2,0c-14.7,0.4-25.9,12.7-26,27.4
				c-0.2,24.8-0.2,49.6,0,74.4c0.1,14.6,11.3,27,25.9,27.4c25.7,0.7,51.4,0.8,77.1,0.1c16.5-0.4,27.1-13,27.2-29.6
				c0-11.7,0-23.3,0-35c0-9.2,0.1-18.3,0-27.5C-29.8,276.6-29.9,273.5-29.9,270.5z M-95.2,343c-19.9-0.2-35.9-16.6-35.8-36.5
				c0.2-19.1,16.6-35.2,35.9-35.3c19.7-0.1,36.1,16.5,36,36.2C-59.1,326.8-75.9,343.2-95.2,343z M-53.7,273
				c-3.9,0.3-7.4-3.3-7.3-7.2c0.1-3.7,3.2-6.8,7-6.9c4.1-0.1,7.4,3.1,7.2,7.2C-47,270.4-49.6,272.6-53.7,273z"/>
			
				<linearGradient id="XMLID_5_" gradientUnits="userSpaceOnUse" x1="-95.05" y1="287.3478" x2="-95.05" y2="330.4478" gradientTransform="matrix(1 0 0 -1 0 616)">
				<stop  offset="0" style="stop-color:#A84B30"/>
				<stop  offset="1" style="stop-color:#B06315"/>
			</linearGradient>
			<path id="XMLID_212_" class="st3" d="M-95.1,285.5c-11.7,0-21.6,10-21.6,21.6s10.1,21.5,21.7,21.5c11.7,0,21.6-10,21.6-21.6
				C-73.4,295.4-83.4,285.5-95.1,285.5z"/>
		</g>
	</g>
</g>
</svg>
