<svg id="Layer_1" data-name="Layer 1" xmlns="http://www.w3.org/2000/svg" viewBox="0 0 32 32"><defs><style>.cls-1{fill:#fff;}.cls-2{fill:#a88208;}</style></defs><title>icon-location-fill</title><path class="cls-1" d="M16,9.23a4,4,0,1,0,4,4A4,4,0,0,0,16,9.23ZM16,0A13.06,13.06,0,0,1,29.06,13.06a19.45,19.45,0,0,1-5.18,13A27.29,27.29,0,0,1,17,31.74a2,2,0,0,1-2,0A27.21,27.21,0,0,1,8.12,26.1a19.4,19.4,0,0,1-5.18-13A13.06,13.06,0,0,1,16,0Z"/><path class="cls-2" d="M16,31a1.09,1.09,0,0,1-.5-.13,26.11,26.11,0,0,1-6.63-5.43A18.41,18.41,0,0,1,4,13.06a12.05,12.05,0,1,1,24.1,0,18.41,18.41,0,0,1-4.92,12.38,26.38,26.38,0,0,1-6.63,5.43A1.09,1.09,0,0,1,16,31ZM16,8.23a5,5,0,1,0,5,5A5,5,0,0,0,16,8.23Z"/></svg>