<svg id="Layer_1" data-name="Layer 1" xmlns="http://www.w3.org/2000/svg" viewBox="0 0 24 24"><title>icon-linkedin</title><path d="M20.27,20.27H16.7V14.76c0-1.34,0-3-1.79-3s-2.09,1.49-2.09,3v5.66H9.24V8.94h3.43v1.49A3.65,3.65,0,0,1,16,8.65c3.58,0,4.17,2.38,4.17,5.36v6.26ZM5.37,7.45A2.13,2.13,0,0,1,3.28,5.37,2,2,0,0,1,5.37,3.28,2,2,0,0,1,7.45,5.37,2.37,2.37,0,0,1,5.37,7.45ZM7,20.27H3.58V8.94H7.16V20.27ZM22.81,0H1A1,1,0,0,0,0,1.05V23.1A1,1,0,0,0,1,24H23A1,1,0,0,0,24,23V1.05A1.27,1.27,0,0,0,22.81,0Z"/></svg>