<?xml version="1.0" encoding="utf-8"?>
<!-- Generator: Adobe Illustrator 19.0.0, SVG Export Plug-In . SVG Version: 6.00 Build 0)  -->
<svg version="1.1" id="Capa_1" xmlns="http://www.w3.org/2000/svg" xmlns:xlink="http://www.w3.org/1999/xlink" x="0px" y="0px"
	 viewBox="-245 157 300 300" style="enable-background:new -245 157 300 300;" xml:space="preserve">
<style type="text/css">
	.st0{fill:url(#XMLID_2_);}
</style>
<linearGradient id="XMLID_2_" gradientUnits="userSpaceOnUse" x1="-95" y1="186.7" x2="-95" y2="431.2" gradientTransform="matrix(1 0 0 -1 0 616)">
	<stop  offset="0" style="stop-color:#A84B30"/>
	<stop  offset="1" style="stop-color:#B06315"/>
</linearGradient>
<path id="XMLID_42_" class="st0" d="M-37.7,184.8h-114.6c-36,0-65.4,29.4-65.4,65.4v113.7c0,36,29.4,65.4,65.4,65.4h114.6
	c36,0,65.4-29.4,65.4-65.4V250.2C27.7,214.2-1.7,184.8-37.7,184.8z M-34.4,283.5c-1.7,2-3.5,4.7-3.5,7.1
	c-0.9,44.3-34.5,78.4-78.8,79.3c-15,0.3-29.1-3.4-43.7-12.1c15.4,0.2,28.4-2.5,40.6-11.9c-12.9-1.6-21-7.8-26-19.3
	c3.8,0,6.8,0,9.9,0c-11.4-6-18.8-14.3-19.6-28c4,0.9,7.4,1.7,12.1,2.9c-11.9-11.1-15-22.9-8.4-37.3c15.7,16.8,34,27.6,57.7,28.8
	c0-1.8,0.1-3.4,0-4.9c-0.5-11.3,4.4-19.8,13.9-25.4c9.8-5.8,20.2-5.8,29.3,0.9c5.2,3.8,9.3,3.5,14.4,1.4c2.5-1,5-2,8.5-2
	c-3.1,4.2-6.3,8.4-9.6,12.9c3.9-0.9,7.9-1.8,11.8-2.6c0.3,0.2,0.5,0.5,0.8,0.7C-28.3,277-31.6,280.1-34.4,283.5z"/>
</svg>
